<svg xmlns="http://www.w3.org/2000/svg" width="256" height="256" viewBox="0 0 100 100"><rect width="100" height="100" rx="20" fill="#7d6ee7"></rect><path fill="#fff" d="M38.27 28.29L42.81 28.29L51.38 51.97Q51.92 53.42 52.39 54.92Q52.86 56.42 53.25 57.78Q53.65 59.14 53.95 60.29Q54.25 61.44 54.40 62.26L54.40 62.26Q54.65 61.14 54.92 59.78Q55.19 58.42 55.51 56.92Q55.83 55.42 56.18 53.84Q56.52 52.27 56.89 50.79L56.89 50.79L60.16 37.41Q60.25 37.04 60.35 36.56Q60.46 36.07 60.55 35.60Q60.64 35.14 60.69 34.73Q60.73 34.32 60.73 34.08L60.73 34.08Q60.73 32.47 59.78 31.81Q58.82 31.14 56.77 31.14L56.77 31.14L55.34 31.14L55.34 27.87L71.51 27.87L71.51 31.14L70.33 31.14Q69.42 31.14 68.72 31.32Q68.03 31.50 67.48 32.03Q66.94 32.56 66.50 33.50Q66.06 34.44 65.64 35.98L65.64 35.98L56.01 72.13L48.96 72.13L38.54 43.04L29.61 72.13L21.92 72.13L10.57 34.44Q10.30 33.47 9.90 32.83Q9.51 32.20 8.98 31.82Q8.45 31.44 7.77 31.29Q7.09 31.14 6.18 31.14L6.18 31.14L5.36 31.14L5.36 27.87L26.07 27.87L26.07 31.14L24.65 31.14Q22.77 31.14 21.85 31.87Q20.92 32.59 20.92 34.14L20.92 34.14Q20.92 34.65 21.12 35.64Q21.32 36.62 21.56 37.47L21.56 37.47L25.71 51.79Q26.04 52.97 26.42 54.34Q26.80 55.72 27.13 57.13Q27.46 58.54 27.73 59.84Q28.01 61.14 28.13 62.14L28.13 62.14Q28.55 60.14 29.05 58.40Q29.55 56.66 30.10 54.84L30.10 54.84L38.27 28.29ZM94.64 72.13L73.23 72.13L73.23 68.83L75.84 68.83Q76.53 68.83 77.11 68.69Q77.69 68.56 78.11 68.13Q78.53 67.71 78.77 66.92Q79.02 66.14 79.02 64.80L79.02 64.80L79.02 35.20Q79.02 33.86 78.77 33.08Q78.53 32.29 78.11 31.87Q77.69 31.44 77.11 31.31Q76.53 31.17 75.84 31.17L75.84 31.17L73.23 31.17L73.23 27.87L94.64 27.87L94.64 31.17L92.03 31.17Q91.37 31.17 90.78 31.31Q90.19 31.44 89.76 31.87Q89.34 32.29 89.10 33.08Q88.86 33.86 88.86 35.20L88.86 35.20L88.86 64.80Q88.86 66.14 89.10 66.92Q89.34 67.71 89.76 68.13Q90.19 68.56 90.78 68.69Q91.37 68.83 92.03 68.83L92.03 68.83L94.64 68.83L94.64 72.13Z"></path></svg>